<svg xmlns="http://www.w3.org/2000/svg" xmlns:xlink="http://www.w3.org/1999/xlink" width="500" zoomAndPan="magnify" viewBox="0 0 375 374.999991" height="500" preserveAspectRatio="xMidYMid meet" version="1.0"><defs><g/><clipPath id="id1"><path d="M 128 104.820312 L 198 104.820312 L 198 226 L 128 226 Z M 128 104.820312 " clip-rule="nonzero"/></clipPath><clipPath id="id2"><path d="M 79.6875 127 L 295.503906 127 L 295.503906 253.320312 L 79.6875 253.320312 Z M 79.6875 127 " clip-rule="nonzero"/></clipPath></defs><rect x="-37.5" width="450" fill="#ffffff" y="-37.499999" height="449.999989" fill-opacity="1"/><rect x="-37.5" width="450" fill="#2a3348" y="-37.499999" height="449.999989" fill-opacity="1"/><rect x="-37.5" width="450" fill="#ffffff" y="-37.499999" height="449.999989" fill-opacity="1"/><rect x="-37.5" width="450" fill="#2a3348" y="-37.499999" height="449.999989" fill-opacity="1"/><g clip-path="url(#id1)"><path fill="#f7a100" d="M 179.757812 104.820312 L 128.523438 147.730469 L 141.34375 191.796875 C 150.761719 189.78125 163.707031 186.703125 169.09375 184.011719 C 168.277344 188.929688 167.167969 193.886719 164.769531 198.261719 C 162.375 202.636719 158.523438 206.414062 153.726562 207.761719 C 151.214844 208.464844 148.566406 208.453125 146.023438 207.878906 L 151.15625 225.515625 C 235.332031 182.546875 179.757812 104.820312 179.757812 104.820312 " fill-opacity="1" fill-rule="nonzero"/></g><path fill="#68758c" d="M 239.425781 158.300781 L 200.023438 123.832031 C 197.707031 127.28125 195.578125 130.640625 193.625 133.917969 C 200.152344 154.96875 201.785156 183.828125 176.652344 207.894531 C 182.25 229.222656 197.894531 239.808594 202.644531 242.597656 L 207.71875 228.59375 C 202.660156 225.574219 197.285156 222.617188 194.15625 221.625 C 197.175781 219.394531 200.367188 217.300781 203.953125 216.195312 C 206.65625 215.359375 209.625 215.140625 212.335938 215.847656 L 230.84375 164.761719 L 237.101562 163.890625 Z M 238.085938 204.554688 C 234.535156 204.554688 231.65625 207.433594 231.65625 210.984375 C 231.65625 214.535156 234.535156 217.414062 238.085938 217.414062 C 241.632812 217.414062 244.515625 214.535156 244.515625 210.984375 C 244.515625 207.433594 241.632812 204.554688 238.085938 204.554688 Z M 173.675781 170.394531 C 174.578125 174.273438 172.164062 178.152344 168.285156 179.054688 C 164.410156 179.957031 160.535156 177.542969 159.628906 173.664062 C 158.726562 169.785156 161.140625 165.90625 165.019531 165.003906 C 168.898438 164.101562 172.773438 166.515625 173.675781 170.394531 " fill-opacity="1" fill-rule="nonzero"/><g clip-path="url(#id2)"><path fill="#fefefe" d="M 146.171875 146.085938 C 146.382812 146.183594 146.644531 146.167969 146.867188 146.148438 C 147.222656 146.113281 147.601562 146.027344 147.9375 145.902344 C 148.195312 145.804688 148.511719 145.703125 148.710938 145.503906 C 148.789062 145.425781 148.949219 145.25 148.769531 145.167969 C 147.683594 144.664062 146.679688 143.996094 145.792969 143.191406 C 145.664062 143.070312 145.234375 143.117188 145.101562 143.128906 C 144.746094 143.164062 144.363281 143.25 144.03125 143.375 C 143.769531 143.472656 143.453125 143.574219 143.253906 143.773438 C 143.148438 143.878906 143.054688 143.980469 143.195312 144.109375 C 144.082031 144.914062 145.085938 145.582031 146.171875 146.085938 Z M 139.84375 205.214844 C 135.808594 202.511719 132.867188 198.375 131.050781 193.871094 C 133.164062 193.476562 140.972656 191.96875 149.179688 190.042969 L 137.796875 127.394531 L 79.6875 127.238281 C 86.3125 222.765625 154.03125 216.742188 154.03125 216.742188 L 152.453125 208.046875 C 148.128906 208.847656 143.511719 207.675781 139.84375 205.214844 Z M 149.546875 141.582031 C 149.730469 141.804688 150.042969 141.90625 150.316406 141.9375 C 150.664062 141.972656 151.09375 141.898438 151.402344 141.742188 C 151.832031 141.523438 152.511719 140.941406 152.074219 140.40625 C 151.304688 139.46875 150.609375 138.480469 149.988281 137.441406 C 149.855469 137.214844 149.445312 137.113281 149.214844 137.085938 C 148.871094 137.050781 148.441406 137.128906 148.132812 137.28125 C 147.859375 137.421875 147.546875 137.613281 147.417969 137.90625 C 147.390625 137.988281 147.363281 138.070312 147.335938 138.152344 C 147.3125 138.324219 147.355469 138.480469 147.460938 138.617188 C 148.082031 139.65625 148.777344 140.648438 149.546875 141.582031 Z M 174.6875 136.347656 C 174.617188 136.074219 174.359375 135.839844 174.097656 135.75 C 173.761719 135.632812 173.386719 135.613281 173.046875 135.71875 C 172.714844 135.816406 172.359375 135.980469 172.152344 136.269531 C 171.269531 137.492188 170.445312 138.75 169.660156 140.039062 C 169.523438 140.265625 169.582031 140.636719 169.730469 140.84375 C 169.898438 141.082031 170.238281 141.242188 170.519531 141.273438 C 170.886719 141.3125 171.28125 141.265625 171.609375 141.089844 C 171.917969 140.921875 172.125 140.710938 172.308594 140.410156 C 172.347656 140.34375 172.386719 140.28125 172.429688 140.214844 C 173.074219 139.171875 173.757812 138.15625 174.476562 137.160156 C 174.644531 136.925781 174.769531 136.644531 174.6875 136.347656 Z M 177.140625 139.710938 C 176.480469 139.5625 175.695312 139.773438 175.195312 140.230469 C 174.359375 141 173.546875 141.792969 172.753906 142.605469 C 172.597656 142.769531 172.429688 143.007812 172.496094 143.253906 C 172.558594 143.484375 172.828125 143.632812 173.042969 143.683594 C 173.378906 143.757812 173.746094 143.742188 174.074219 143.644531 C 174.402344 143.550781 174.75 143.410156 174.988281 143.160156 C 175.78125 142.34375 176.59375 141.554688 177.429688 140.785156 C 177.59375 140.640625 177.75 140.375 177.6875 140.140625 C 177.625 139.90625 177.355469 139.757812 177.140625 139.710938 Z M 210.296875 160.625 C 210.3125 160.644531 210.324219 160.652344 210.328125 160.648438 C 210.332031 160.628906 210.320312 160.621094 210.296875 160.625 Z M 201.578125 158 C 202.664062 156.640625 203.804688 155.546875 205.53125 155.082031 C 206.730469 154.761719 208.457031 154.59375 209.332031 155.691406 C 210.285156 156.886719 209.320312 158.441406 209.75 159.773438 C 209.769531 159.835938 209.984375 160.179688 210.148438 160.421875 C 210.765625 159.992188 211.398438 159.597656 212.09375 159.296875 C 214.007812 158.460938 218.445312 158.011719 217.910156 161.367188 C 217.785156 162.152344 217.335938 162.90625 217.464844 163.71875 C 217.503906 163.976562 217.65625 164.191406 217.707031 164.433594 C 217.734375 164.457031 217.761719 164.476562 217.785156 164.496094 C 219.089844 163.703125 220.640625 162.917969 222.164062 162.789062 C 223.390625 162.6875 224.3125 163.351562 224.226562 164.660156 C 224.179688 165.367188 223.820312 165.992188 223.640625 166.664062 C 223.523438 167.085938 223.480469 167.46875 223.636719 167.875 C 223.695312 168.035156 223.980469 168.589844 224.105469 168.578125 C 224.496094 168.542969 225.042969 168.5625 224.75 169.023438 C 224.457031 169.488281 223.402344 169.636719 222.910156 169.679688 C 221.300781 169.824219 220.507812 168.683594 220.925781 167.152344 C 221.148438 166.324219 221.65625 165.542969 221.40625 164.660156 C 221.285156 164.234375 220.839844 164.0625 221.1875 163.898438 C 220.820312 164.035156 220.453125 164.246094 220.128906 164.425781 C 218.867188 165.125 217.238281 166.410156 215.679688 165.804688 C 214.148438 165.214844 214.847656 163.371094 215.113281 162.246094 C 215.316406 161.371094 215.191406 160.53125 214.371094 160.035156 C 213.5 159.511719 213.03125 159.957031 212.269531 160.476562 C 211.128906 161.261719 209.550781 162.242188 208.09375 161.746094 C 206.566406 161.226562 206.941406 159.394531 207.007812 158.183594 C 207.046875 157.414062 206.914062 156.25 205.96875 156.046875 C 205.605469 155.96875 205.574219 156.105469 205.230469 156.441406 C 204.886719 156.769531 204.585938 157.140625 204.289062 157.511719 C 203.921875 157.972656 203.234375 158.167969 202.675781 158.261719 C 202.597656 158.273438 201.265625 158.386719 201.578125 158 Z M 244.515625 210.984375 C 244.515625 207.433594 241.632812 204.554688 238.085938 204.554688 C 234.535156 204.554688 231.65625 207.433594 231.65625 210.984375 C 231.65625 214.535156 234.535156 217.414062 238.085938 217.414062 C 241.632812 217.414062 244.515625 214.535156 244.515625 210.984375 Z M 295.503906 155.78125 C 295.503906 155.78125 282.304688 270.234375 199.53125 251.191406 L 207.71875 228.59375 C 213.296875 231.917969 218.492188 235.316406 219.871094 236.230469 C 221.246094 232.847656 221.824219 229.070312 221.0625 225.5 C 220.300781 221.925781 218.105469 218.589844 214.894531 216.847656 C 214.082031 216.410156 213.222656 216.078125 212.335938 215.847656 L 230.84375 164.761719 Z M 153.894531 133.5625 C 153.574219 133.65625 153.222656 133.78125 152.976562 134.015625 C 152.832031 134.152344 152.613281 134.371094 152.695312 134.589844 C 153.164062 135.828125 153.523438 137.105469 153.773438 138.402344 C 153.816406 138.621094 154.128906 138.726562 154.304688 138.761719 C 154.621094 138.828125 155.019531 138.785156 155.328125 138.695312 C 155.648438 138.601562 156.003906 138.476562 156.25 138.242188 C 156.410156 138.089844 156.574219 137.90625 156.527344 137.664062 C 156.273438 136.367188 155.914062 135.09375 155.445312 133.855469 C 155.246094 133.3125 154.320312 133.4375 153.894531 133.5625 Z M 163.464844 131.28125 C 163.136719 131.265625 162.769531 131.332031 162.457031 131.421875 C 162.136719 131.511719 161.796875 131.617188 161.515625 131.804688 C 161.378906 131.898438 161.183594 132.015625 161.195312 132.207031 C 161.230469 132.796875 161.175781 133.378906 161.09375 133.960938 C 160.925781 135 160.683594 136.03125 160.675781 137.082031 C 160.671875 137.246094 161.097656 137.269531 161.15625 137.273438 C 161.480469 137.289062 161.855469 137.222656 162.164062 137.136719 C 162.484375 137.042969 162.828125 136.9375 163.101562 136.75 C 163.25 136.652344 163.425781 136.542969 163.425781 136.347656 C 163.429688 135.871094 163.484375 135.40625 163.554688 134.9375 C 163.742188 133.792969 164.019531 132.640625 163.945312 131.472656 C 163.9375 131.308594 163.535156 131.285156 163.464844 131.28125 Z M 170.484375 134.003906 C 169.8125 135.460938 169.175781 136.9375 168.585938 138.429688 C 168.324219 139.09375 167.4375 139.363281 166.796875 139.292969 C 166.179688 139.226562 165.695312 138.6875 165.941406 138.066406 C 166.535156 136.570312 167.167969 135.09375 167.84375 133.636719 C 168.144531 132.984375 168.957031 132.703125 169.628906 132.777344 C 170.222656 132.839844 170.769531 133.390625 170.484375 134.003906 " fill-opacity="1" fill-rule="nonzero"/></g><path fill="#414960" d="M 235.667969 179.285156 C 227.171875 186.539062 218.957031 194.703125 211.261719 203.546875 C 210.792969 204.085938 210.320312 204.636719 209.96875 205.257812 C 209.039062 206.90625 209.28125 208.394531 209.71875 209.609375 C 209.59375 209.921875 209.460938 210.113281 210.023438 210.34375 C 215.210938 212.445312 223.195312 213.351562 228.875 214.054688 C 224.941406 210.757812 220.632812 208.125 216.039062 206.191406 C 223.957031 198.570312 231.164062 189.394531 236.84375 179.628906 C 236.945312 179.453125 237.050781 179.269531 237.085938 179.097656 C 237.226562 178.382812 236.269531 178.769531 235.667969 179.285156 Z M 214.296875 181.464844 C 217.621094 180.519531 221.59375 176.964844 224.128906 174.617188 C 216.511719 171.367188 209.164062 167.476562 202.195312 162.996094 C 200.511719 166.488281 200.738281 170.640625 201.847656 174.359375 C 202.410156 176.234375 203.21875 178.09375 204.609375 179.476562 C 207.058594 181.914062 210.972656 182.410156 214.296875 181.464844 Z M 262.386719 193.28125 C 254.132812 190.988281 246.273438 187.292969 239.242188 182.402344 C 237.621094 184.914062 237.988281 188.195312 238.636719 191.113281 C 239.015625 192.832031 239.484375 194.558594 240.378906 196.066406 C 242.296875 199.296875 246.089844 201.179688 249.84375 201.199219 C 253.59375 201.21875 257.238281 199.515625 259.976562 196.949219 C 261.089844 195.902344 262.082031 194.703125 262.761719 193.332031 Z M 125.863281 151.496094 C 124.449219 150.449219 122.964844 149.457031 121.292969 148.90625 C 117.730469 147.734375 113.628906 148.804688 110.789062 151.253906 C 107.949219 153.707031 106.316406 157.382812 105.941406 161.117188 C 105.785156 162.640625 105.828125 164.195312 106.214844 165.671875 L 106.527344 165.46875 C 114.257812 161.773438 122.613281 159.394531 131.125 158.464844 C 130.695312 155.503906 128.269531 153.273438 125.863281 151.496094 Z M 152.382812 173.695312 C 148.753906 166.878906 144.300781 160.507812 139.148438 154.757812 C 138.785156 154.351562 138.007812 154.007812 137.824219 154.523438 C 137.777344 154.648438 137.800781 154.785156 137.820312 154.917969 C 139.027344 162.273438 142.035156 169.316406 146.472656 175.296875 C 140.648438 176.90625 136.710938 178.277344 131.125 181.226562 C 137.515625 180.425781 144.25 180.503906 150.417969 178.667969 C 150.9375 178.515625 150.996094 178.394531 150.964844 178.246094 C 152.019531 177.394531 153.070312 176.304688 152.886719 174.996094 C 152.820312 174.53125 152.601562 174.109375 152.382812 173.695312 Z M 172.984375 150.113281 C 164.789062 151.320312 156.695312 153.210938 148.816406 155.765625 L 148.765625 153.976562 C 149.136719 150.539062 149.847656 147.035156 151.734375 144.136719 C 153.621094 141.238281 156.894531 139.046875 160.34375 139.273438 C 165.742188 139.628906 171.59375 145.039062 172.984375 150.113281 " fill-opacity="1" fill-rule="nonzero"/><path fill="#f7a100" d="M 127.453125 141.433594 C 127.09375 141.484375 126.714844 141.585938 126.410156 141.789062 C 126.199219 141.925781 125.949219 142.109375 125.890625 142.375 C 125.574219 143.847656 125.175781 145.300781 124.699219 146.730469 C 124.628906 146.945312 124.8125 147.140625 124.984375 147.230469 C 125.238281 147.359375 125.621094 147.367188 125.890625 147.328125 C 126.457031 147.25 127.253906 146.996094 127.453125 146.386719 C 127.929688 144.960938 128.324219 143.507812 128.640625 142.035156 C 128.773438 141.433594 127.832031 141.378906 127.453125 141.433594 Z M 118.96875 174.359375 C 115.089844 175.261719 112.679688 179.136719 113.582031 183.019531 C 114.484375 186.898438 118.359375 189.3125 122.238281 188.40625 C 126.117188 187.503906 128.527344 183.628906 127.625 179.75 C 126.722656 175.871094 122.847656 173.457031 118.96875 174.359375 Z M 266.941406 189.027344 C 265.597656 189.128906 264.855469 187.316406 264.65625 186.246094 C 264.460938 185.210938 264.339844 184.152344 263.152344 183.859375 C 261.894531 183.550781 260.464844 184.128906 259.300781 184.558594 C 258.683594 184.785156 258.078125 185.042969 257.484375 185.320312 C 257.117188 185.492188 256.75 185.671875 256.394531 185.867188 C 256.367188 185.882812 256.285156 185.917969 256.191406 185.964844 C 255.714844 185.257812 256.34375 183.726562 256.078125 182.992188 C 255.777344 182.160156 254.921875 181.761719 254.097656 181.644531 C 253.027344 181.484375 251.921875 181.710938 250.925781 182.101562 C 250.378906 182.3125 249.808594 182.753906 249.246094 182.894531 C 248.792969 183.007812 248.945312 183.113281 248.769531 182.65625 C 248.660156 182.382812 248.664062 182.042969 248.664062 181.757812 C 248.667969 180.488281 249.066406 179.222656 248.390625 178.046875 C 247.921875 177.234375 247.144531 176.890625 246.234375 176.882812 C 245.265625 176.878906 244.257812 177.230469 243.480469 177.800781 C 242.933594 178.207031 242.191406 179.339844 241.628906 179.460938 C 241.304688 179.53125 240.269531 179.890625 240.398438 180.378906 C 240.535156 180.882812 241.632812 180.617188 241.921875 180.558594 C 243.089844 180.308594 244.570312 179.429688 245.269531 178.382812 C 245.371094 178.464844 245.464844 178.550781 245.542969 178.65625 C 245.777344 178.945312 245.917969 179.347656 245.988281 179.703125 C 246.175781 180.628906 245.910156 181.566406 245.914062 182.492188 C 245.921875 184.523438 247.574219 184.613281 249.167969 184.160156 C 250.328125 183.832031 252.839844 181.84375 253.367188 183.921875 C 253.683594 185.167969 252.609375 187.289062 254.679688 187.53125 C 256.503906 187.746094 258.152344 186.277344 259.746094 185.636719 C 260.722656 185.246094 261.429688 184.8125 261.753906 186.082031 C 261.941406 186.824219 261.957031 187.542969 262.300781 188.25 C 262.988281 189.664062 264.222656 190.464844 265.808594 190.347656 C 266.332031 190.308594 267.351562 190.171875 267.636719 189.648438 C 267.914062 189.144531 267.402344 188.996094 266.941406 189.027344 Z M 114.582031 145.265625 C 114.898438 145.328125 115.296875 145.28125 115.601562 145.191406 C 115.925781 145.101562 116.277344 144.976562 116.527344 144.746094 C 116.6875 144.597656 116.847656 144.429688 116.808594 144.191406 C 116.558594 142.65625 116.214844 141.136719 115.78125 139.644531 C 115.71875 139.429688 115.449219 139.339844 115.257812 139.304688 C 114.9375 139.246094 114.542969 139.292969 114.234375 139.378906 C 113.914062 139.472656 113.5625 139.597656 113.3125 139.828125 C 113.164062 139.960938 112.964844 140.15625 113.027344 140.382812 C 113.464844 141.875 113.808594 143.394531 114.058594 144.925781 C 114.09375 145.140625 114.417969 145.238281 114.582031 145.265625 Z M 203.847656 188.140625 C 199.863281 188.140625 196.636719 191.367188 196.636719 195.351562 C 196.636719 199.335938 199.863281 202.5625 203.847656 202.5625 C 207.828125 202.5625 211.058594 199.335938 211.058594 195.351562 C 211.058594 191.367188 207.828125 188.140625 203.847656 188.140625 Z M 119.9375 146.601562 C 120.296875 146.546875 120.671875 146.445312 120.980469 146.25 C 121.175781 146.121094 121.46875 145.933594 121.503906 145.683594 C 121.625 144.847656 121.746094 144.011719 121.867188 143.175781 C 121.976562 142.398438 122.179688 141.535156 121.921875 140.765625 C 121.734375 140.222656 120.777344 140.351562 120.367188 140.472656 C 120.042969 140.566406 119.691406 140.691406 119.445312 140.929688 C 119.296875 141.066406 119.09375 141.277344 119.167969 141.507812 C 119.246094 141.738281 119.273438 141.976562 119.28125 142.222656 C 119.25 142.828125 119.132812 143.4375 119.046875 144.035156 C 118.949219 144.703125 118.855469 145.371094 118.757812 146.039062 C 118.671875 146.632812 119.542969 146.660156 119.9375 146.601562 Z M 106.972656 142.21875 C 106.511719 141.714844 105.691406 141.695312 105.101562 142.003906 C 104.828125 142.152344 104.519531 142.359375 104.398438 142.664062 C 104.304688 142.90625 104.261719 143.226562 104.457031 143.441406 C 105.832031 144.929688 107.203125 146.421875 108.574219 147.914062 C 109.039062 148.417969 109.859375 148.4375 110.449219 148.128906 C 110.722656 147.980469 111.03125 147.773438 111.152344 147.46875 C 111.246094 147.226562 111.289062 146.90625 111.09375 146.695312 C 109.71875 145.203125 108.347656 143.710938 106.972656 142.21875 Z M 101.738281 161.394531 C 100.984375 161.105469 100.257812 160.746094 99.570312 160.320312 C 99.289062 160.140625 99.015625 159.949219 98.75 159.75 C 98.535156 159.585938 98.28125 159.542969 98.019531 159.542969 C 97.667969 159.539062 97.261719 159.621094 96.9375 159.761719 C 96.679688 159.878906 96.355469 160.023438 96.195312 160.273438 C 96.101562 160.421875 96.003906 160.65625 96.1875 160.796875 C 97.207031 161.570312 98.335938 162.210938 99.53125 162.667969 C 99.816406 162.773438 100.140625 162.777344 100.433594 162.738281 C 100.777344 162.691406 101.179688 162.574219 101.476562 162.386719 C 101.667969 162.269531 101.96875 162.089844 102.007812 161.84375 C 102.039062 161.636719 101.945312 161.472656 101.738281 161.394531 Z M 103.949219 157.210938 C 102.449219 156.324219 101.058594 155.273438 99.796875 154.070312 C 99.652344 153.929688 99.253906 153.949219 99.089844 153.957031 C 98.738281 153.976562 98.34375 154.066406 98.015625 154.195312 C 97.792969 154.28125 96.835938 154.675781 97.210938 155.03125 C 98.46875 156.234375 99.863281 157.285156 101.363281 158.171875 C 101.570312 158.296875 101.839844 158.296875 102.074219 158.285156 C 102.425781 158.265625 102.816406 158.179688 103.144531 158.046875 C 103.289062 157.992188 104.398438 157.472656 103.949219 157.210938 Z M 107.566406 150.894531 C 107.539062 151.167969 107.265625 151.378906 107.058594 151.523438 C 106.773438 151.722656 106.359375 151.847656 106.019531 151.882812 C 105.730469 151.914062 105.367188 151.898438 105.101562 151.753906 C 103.546875 150.890625 102.179688 149.667969 101.183594 148.191406 C 100.820312 147.652344 101.453125 147.199219 101.890625 146.992188 C 102.207031 146.839844 102.628906 146.761719 102.972656 146.785156 C 103.1875 146.796875 103.589844 146.867188 103.730469 147.074219 C 104.339844 147.976562 105.085938 148.785156 105.9375 149.46875 C 106.363281 149.789062 106.804688 150.082031 107.273438 150.34375 C 107.492188 150.460938 107.59375 150.652344 107.566406 150.894531 " fill-opacity="1" fill-rule="nonzero"/><g fill="#f7a100" fill-opacity="1"><g transform="translate(109.228189, 295.108721)"><g><path d="M 14.15625 0 C 13.945312 -1.414062 13.734375 -2.816406 13.515625 -4.203125 C 13.296875 -5.597656 13.070312 -6.988281 12.84375 -8.375 L 5.65625 -8.375 C 5.414062 -6.988281 5.1875 -5.597656 4.96875 -4.203125 C 4.757812 -2.816406 4.550781 -1.414062 4.34375 0 L 0.140625 0 C 0.609375 -1.789062 1.070312 -3.632812 1.53125 -5.53125 C 1.988281 -7.425781 2.421875 -9.316406 2.828125 -11.203125 C 3.242188 -13.085938 3.640625 -14.941406 4.015625 -16.765625 C 4.398438 -18.585938 4.75 -20.328125 5.0625 -21.984375 C 5.375 -23.648438 5.664062 -25.195312 5.9375 -26.625 C 6.207031 -28.0625 6.4375 -29.332031 6.625 -30.4375 L 11.875 -30.4375 C 12.0625 -29.332031 12.289062 -28.0625 12.5625 -26.625 C 12.832031 -25.195312 13.125 -23.648438 13.4375 -21.984375 C 13.75 -20.328125 14.09375 -18.585938 14.46875 -16.765625 C 14.851562 -14.941406 15.25 -13.085938 15.65625 -11.203125 C 16.070312 -9.316406 16.507812 -7.425781 16.96875 -5.53125 C 17.425781 -3.632812 17.890625 -1.789062 18.359375 0 Z M 9.078125 -25.96875 C 8.472656 -23.457031 7.925781 -20.957031 7.4375 -18.46875 C 6.957031 -15.988281 6.503906 -13.488281 6.078125 -10.96875 L 12.40625 -10.96875 C 11.976562 -13.488281 11.515625 -15.988281 11.015625 -18.46875 C 10.523438 -20.957031 9.984375 -23.457031 9.390625 -25.96875 Z M 9.078125 -25.96875 "/></g></g></g><g fill="#f7a100" fill-opacity="1"><g transform="translate(128.635989, 295.108721)"><g><path d="M 14.203125 -24.875 C 14.023438 -23.582031 13.835938 -22.171875 13.640625 -20.640625 C 13.441406 -19.109375 13.238281 -17.546875 13.03125 -15.953125 C 12.820312 -14.367188 12.613281 -12.789062 12.40625 -11.21875 C 12.195312 -9.644531 12.003906 -8.148438 11.828125 -6.734375 C 11.648438 -5.328125 11.488281 -4.046875 11.34375 -2.890625 C 11.207031 -1.734375 11.101562 -0.769531 11.03125 0 L 5.78125 0 C 5.613281 -1.101562 5.421875 -2.367188 5.203125 -3.796875 C 4.992188 -5.234375 4.757812 -6.78125 4.5 -8.4375 C 4.25 -10.101562 3.96875 -11.847656 3.65625 -13.671875 C 3.34375 -15.503906 3.015625 -17.359375 2.671875 -19.234375 C 2.328125 -21.117188 1.960938 -23.003906 1.578125 -24.890625 C 1.191406 -26.785156 0.800781 -28.632812 0.40625 -30.4375 L 4.671875 -30.4375 C 5.234375 -26.007812 5.804688 -21.648438 6.390625 -17.359375 C 6.972656 -13.066406 7.613281 -8.769531 8.3125 -4.46875 L 8.625 -4.46875 C 8.957031 -6.613281 9.273438 -8.753906 9.578125 -10.890625 C 9.878906 -13.035156 10.164062 -15.191406 10.4375 -17.359375 C 10.71875 -19.523438 10.988281 -21.695312 11.25 -23.875 C 11.519531 -26.050781 11.796875 -28.238281 12.078125 -30.4375 L 16.640625 -30.4375 C 17.179688 -26.019531 17.710938 -21.65625 18.234375 -17.34375 C 18.765625 -13.03125 19.378906 -8.738281 20.078125 -4.46875 L 20.390625 -4.46875 C 21.078125 -8.769531 21.71875 -13.066406 22.3125 -17.359375 C 22.90625 -21.648438 23.476562 -26.007812 24.03125 -30.4375 L 28.3125 -30.4375 C 27.914062 -28.632812 27.523438 -26.785156 27.140625 -24.890625 C 26.753906 -23.003906 26.390625 -21.117188 26.046875 -19.234375 C 25.703125 -17.359375 25.375 -15.503906 25.0625 -13.671875 C 24.75 -11.847656 24.460938 -10.101562 24.203125 -8.4375 C 23.941406 -6.78125 23.703125 -5.234375 23.484375 -3.796875 C 23.265625 -2.367188 23.082031 -1.101562 22.9375 0 L 17.6875 0 C 17.601562 -0.769531 17.492188 -1.734375 17.359375 -2.890625 C 17.222656 -4.046875 17.0625 -5.328125 16.875 -6.734375 C 16.695312 -8.148438 16.503906 -9.644531 16.296875 -11.21875 C 16.097656 -12.789062 15.894531 -14.367188 15.6875 -15.953125 C 15.476562 -17.546875 15.269531 -19.109375 15.0625 -20.640625 C 14.851562 -22.171875 14.671875 -23.582031 14.515625 -24.875 Z M 14.203125 -24.875 "/></g></g></g><g fill="#f7a100" fill-opacity="1"><g transform="translate(158.257594, 295.108721)"><g><path d="M 7.359375 -1.90625 C 7.941406 -1.90625 8.519531 -1.992188 9.09375 -2.171875 C 9.664062 -2.359375 10.171875 -2.660156 10.609375 -3.078125 C 11.054688 -3.492188 11.410156 -4.019531 11.671875 -4.65625 C 11.941406 -5.300781 12.078125 -6.085938 12.078125 -7.015625 C 12.078125 -7.816406 11.914062 -8.554688 11.59375 -9.234375 C 11.28125 -9.921875 10.863281 -10.570312 10.34375 -11.1875 C 9.832031 -11.8125 9.242188 -12.414062 8.578125 -13 C 7.910156 -13.582031 7.226562 -14.164062 6.53125 -14.75 C 5.84375 -15.34375 5.164062 -15.953125 4.5 -16.578125 C 3.832031 -17.210938 3.238281 -17.878906 2.71875 -18.578125 C 2.207031 -19.273438 1.789062 -20.03125 1.46875 -20.84375 C 1.15625 -21.65625 1 -22.539062 1 -23.5 C 1 -24.90625 1.253906 -26.085938 1.765625 -27.046875 C 2.285156 -28.015625 2.941406 -28.789062 3.734375 -29.375 C 4.535156 -29.957031 5.421875 -30.375 6.390625 -30.625 C 7.359375 -30.875 8.300781 -31 9.21875 -31 C 10.175781 -31 11.101562 -30.921875 12 -30.765625 C 12.894531 -30.609375 13.753906 -30.441406 14.578125 -30.265625 L 14.578125 -25.859375 C 14.109375 -26.253906 13.660156 -26.613281 13.234375 -26.9375 C 12.816406 -27.257812 12.394531 -27.535156 11.96875 -27.765625 C 11.550781 -27.992188 11.117188 -28.171875 10.671875 -28.296875 C 10.234375 -28.429688 9.765625 -28.5 9.265625 -28.5 C 8.640625 -28.5 8.050781 -28.410156 7.5 -28.234375 C 6.945312 -28.066406 6.46875 -27.804688 6.0625 -27.453125 C 5.65625 -27.097656 5.328125 -26.644531 5.078125 -26.09375 C 4.835938 -25.550781 4.71875 -24.90625 4.71875 -24.15625 C 4.71875 -23.101562 4.988281 -22.144531 5.53125 -21.28125 C 6.082031 -20.414062 6.769531 -19.59375 7.59375 -18.8125 C 8.425781 -18.03125 9.320312 -17.242188 10.28125 -16.453125 C 11.238281 -15.671875 12.128906 -14.828125 12.953125 -13.921875 C 13.785156 -13.023438 14.472656 -12.039062 15.015625 -10.96875 C 15.566406 -9.90625 15.84375 -8.6875 15.84375 -7.3125 C 15.84375 -6.28125 15.722656 -5.367188 15.484375 -4.578125 C 15.242188 -3.785156 14.921875 -3.097656 14.515625 -2.515625 C 14.109375 -1.929688 13.640625 -1.4375 13.109375 -1.03125 C 12.578125 -0.632812 12.007812 -0.316406 11.40625 -0.078125 C 10.800781 0.160156 10.175781 0.332031 9.53125 0.4375 C 8.894531 0.539062 8.273438 0.59375 7.671875 0.59375 C 6.941406 0.59375 6.273438 0.566406 5.671875 0.515625 C 5.066406 0.460938 4.5 0.390625 3.96875 0.296875 C 3.445312 0.203125 2.960938 0.09375 2.515625 -0.03125 C 2.066406 -0.15625 1.628906 -0.289062 1.203125 -0.4375 L 1.203125 -4.984375 C 1.660156 -4.554688 2.113281 -4.15625 2.5625 -3.78125 C 3.019531 -3.40625 3.492188 -3.078125 3.984375 -2.796875 C 4.484375 -2.515625 5.003906 -2.296875 5.546875 -2.140625 C 6.097656 -1.984375 6.703125 -1.90625 7.359375 -1.90625 Z M 7.359375 -1.90625 "/></g></g></g><g fill="#fefefe" fill-opacity="1"><g transform="translate(187.511711, 282.397424)"><g><path d="M 10.796875 11.8125 C 9.398438 11.8125 8.066406 11.648438 6.796875 11.328125 C 5.523438 11.015625 4.40625 10.519531 3.4375 9.84375 C 2.46875 9.175781 1.703125 8.332031 1.140625 7.3125 C 0.578125 6.300781 0.296875 5.101562 0.296875 3.71875 C 0.296875 1.875 0.722656 0.164062 1.578125 -1.40625 C 2.441406 -2.988281 3.675781 -4.382812 5.28125 -5.59375 C 6.894531 -6.800781 8.816406 -7.773438 11.046875 -8.515625 C 10.054688 -8.835938 9.023438 -9.160156 7.953125 -9.484375 C 6.890625 -9.816406 5.648438 -9.984375 4.234375 -9.984375 C 3.628906 -9.984375 3.101562 -9.929688 2.65625 -9.828125 C 2.207031 -9.734375 1.78125 -9.640625 1.375 -9.546875 L 0.953125 -11.765625 C 1.472656 -11.960938 2.054688 -12.128906 2.703125 -12.265625 C 3.359375 -12.410156 4.019531 -12.484375 4.6875 -12.484375 C 5.601562 -12.484375 6.421875 -12.394531 7.140625 -12.21875 C 7.859375 -12.050781 8.539062 -11.847656 9.1875 -11.609375 C 9.84375 -11.367188 10.53125 -11.125 11.25 -10.875 C 11.96875 -10.625 12.769531 -10.410156 13.65625 -10.234375 C 14.550781 -10.066406 15.609375 -9.972656 16.828125 -9.953125 L 17.09375 -9.953125 L 17.15625 -7.5 C 16 -7.5 14.765625 -7.34375 13.453125 -7.03125 C 12.140625 -6.71875 10.851562 -6.253906 9.59375 -5.640625 C 8.332031 -5.035156 7.1875 -4.289062 6.15625 -3.40625 C 5.132812 -2.53125 4.3125 -1.523438 3.6875 -0.390625 C 3.070312 0.742188 2.765625 2.015625 2.765625 3.421875 C 2.765625 4.816406 3.144531 5.945312 3.90625 6.8125 C 4.664062 7.6875 5.675781 8.320312 6.9375 8.71875 C 8.207031 9.125 9.59375 9.328125 11.09375 9.328125 C 13.070312 9.328125 15.082031 8.925781 17.125 8.125 L 17.96875 10.171875 C 16.789062 10.734375 15.59375 11.144531 14.375 11.40625 C 13.15625 11.675781 11.960938 11.8125 10.796875 11.8125 Z M 10.796875 11.8125 "/></g></g></g><g fill="#fefefe" fill-opacity="1"><g transform="translate(206.674269, 282.397424)"><g><path d="M 0.125 6.953125 L -0.75 4.6875 C 1.1875 4.039062 2.703125 3.273438 3.796875 2.390625 C 4.890625 1.515625 5.660156 0.59375 6.109375 -0.375 C 6.554688 -1.34375 6.78125 -2.285156 6.78125 -3.203125 C 6.78125 -4.191406 6.5625 -5.1875 6.125 -6.1875 C 5.695312 -7.195312 5.222656 -8.15625 4.703125 -9.0625 L 6.90625 -10.171875 C 7.457031 -9.109375 7.925781 -8.085938 8.3125 -7.109375 C 8.707031 -6.128906 9.015625 -5.269531 9.234375 -4.53125 C 9.515625 -3.664062 9.878906 -3.078125 10.328125 -2.765625 C 10.785156 -2.460938 11.40625 -2.3125 12.1875 -2.3125 C 12.601562 -2.3125 12.90625 -2.195312 13.09375 -1.96875 C 13.28125 -1.738281 13.375 -1.460938 13.375 -1.140625 C 13.375 -0.816406 13.234375 -0.519531 12.953125 -0.25 C 12.679688 0.0195312 12.320312 0.15625 11.875 0.15625 C 11.113281 0.15625 10.476562 0.0351562 9.96875 -0.203125 C 9.457031 -0.441406 9.046875 -0.765625 8.734375 -1.171875 C 8.535156 -0.046875 8.113281 0.972656 7.46875 1.890625 C 6.832031 2.804688 6.082031 3.609375 5.21875 4.296875 C 4.363281 4.992188 3.484375 5.5625 2.578125 6 C 1.679688 6.4375 0.863281 6.753906 0.125 6.953125 Z M 0.125 6.953125 "/></g></g></g><g fill="#fefefe" fill-opacity="1"><g transform="translate(218.549653, 282.397424)"><g><path d="M 0 0.15625 L 0.296875 -2.3125 C 0.941406 -2.3125 1.460938 -2.351562 1.859375 -2.4375 C 2.253906 -2.53125 2.585938 -2.757812 2.859375 -3.125 C 3.128906 -3.5 3.382812 -4.085938 3.625 -4.890625 C 3.863281 -5.691406 4.144531 -6.8125 4.46875 -8.25 L 6.71875 -7.625 C 6.601562 -7.101562 6.460938 -6.488281 6.296875 -5.78125 C 6.140625 -5.082031 6.0625 -4.457031 6.0625 -3.90625 C 6.0625 -3.40625 6.25 -3.015625 6.625 -2.734375 C 7.007812 -2.453125 7.703125 -2.3125 8.703125 -2.3125 C 9.296875 -2.3125 9.78125 -2.359375 10.15625 -2.453125 C 10.539062 -2.554688 10.859375 -2.796875 11.109375 -3.171875 C 11.359375 -3.554688 11.582031 -4.160156 11.78125 -4.984375 C 11.988281 -5.816406 12.203125 -6.972656 12.421875 -8.453125 L 14.703125 -8.046875 C 14.640625 -7.679688 14.5625 -7.238281 14.46875 -6.71875 C 14.382812 -6.195312 14.3125 -5.679688 14.25 -5.171875 C 14.1875 -4.660156 14.15625 -4.238281 14.15625 -3.90625 C 14.15625 -3.625 14.21875 -3.359375 14.34375 -3.109375 C 14.476562 -2.859375 14.738281 -2.660156 15.125 -2.515625 C 15.519531 -2.378906 16.109375 -2.3125 16.890625 -2.3125 C 17.890625 -2.3125 18.613281 -2.515625 19.0625 -2.921875 C 19.507812 -3.335938 19.734375 -3.984375 19.734375 -4.859375 C 19.734375 -5.535156 19.710938 -6.285156 19.671875 -7.109375 C 19.640625 -7.929688 19.539062 -8.960938 19.375 -10.203125 L 21.5625 -10.34375 C 21.6875 -8.726562 21.820312 -7.398438 21.96875 -6.359375 C 22.125 -5.316406 22.34375 -4.5 22.625 -3.90625 C 22.914062 -3.320312 23.3125 -2.910156 23.8125 -2.671875 C 24.3125 -2.429688 24.972656 -2.3125 25.796875 -2.3125 C 26.222656 -2.3125 26.53125 -2.195312 26.71875 -1.96875 C 26.90625 -1.738281 27 -1.460938 27 -1.140625 C 27 -0.816406 26.859375 -0.519531 26.578125 -0.25 C 26.296875 0.0195312 25.9375 0.15625 25.5 0.15625 C 24.375 0.15625 23.445312 -0.09375 22.71875 -0.59375 C 21.988281 -1.09375 21.457031 -1.722656 21.125 -2.484375 C 20.71875 -1.429688 20.109375 -0.726562 19.296875 -0.375 C 18.492188 -0.0195312 17.601562 0.15625 16.625 0.15625 C 15.601562 0.15625 14.796875 0.0078125 14.203125 -0.28125 C 13.609375 -0.570312 13.175781 -1.019531 12.90625 -1.625 C 12.425781 -0.90625 11.847656 -0.425781 11.171875 -0.1875 C 10.503906 0.0390625 9.5625 0.15625 8.34375 0.15625 C 7.914062 0.15625 7.46875 0.101562 7 0 C 6.53125 -0.101562 6.09375 -0.296875 5.6875 -0.578125 C 5.289062 -0.867188 4.984375 -1.304688 4.765625 -1.890625 C 4.242188 -1.003906 3.597656 -0.441406 2.828125 -0.203125 C 2.066406 0.0351562 1.125 0.15625 0 0.15625 Z M 0 0.15625 "/></g></g></g><g fill="#fefefe" fill-opacity="1"><g transform="translate(244.039752, 282.397424)"><g><path d="M 0 0.15625 L 0.296875 -2.3125 C 0.859375 -2.3125 1.300781 -2.429688 1.625 -2.671875 C 1.957031 -2.910156 2.28125 -3.304688 2.59375 -3.859375 C 2.90625 -4.410156 3.300781 -5.164062 3.78125 -6.125 C 4.414062 -7.40625 5.054688 -8.382812 5.703125 -9.0625 C 6.359375 -9.738281 6.976562 -10.207031 7.5625 -10.46875 C 8.15625 -10.726562 8.695312 -10.859375 9.1875 -10.859375 C 9.84375 -10.859375 10.429688 -10.710938 10.953125 -10.421875 C 11.472656 -10.128906 11.957031 -9.640625 12.40625 -8.953125 C 12.851562 -8.265625 13.328125 -7.320312 13.828125 -6.125 C 14.285156 -5 14.695312 -4.164062 15.0625 -3.625 C 15.4375 -3.082031 15.828125 -2.726562 16.234375 -2.5625 C 16.648438 -2.394531 17.117188 -2.3125 17.640625 -2.3125 C 18.054688 -2.3125 18.359375 -2.195312 18.546875 -1.96875 C 18.742188 -1.738281 18.84375 -1.460938 18.84375 -1.140625 C 18.84375 -0.816406 18.703125 -0.519531 18.421875 -0.25 C 18.140625 0.0195312 17.78125 0.15625 17.34375 0.15625 C 16.5625 0.15625 15.84375 0.03125 15.1875 -0.21875 C 14.539062 -0.46875 14.03125 -0.851562 13.65625 -1.375 C 13.269531 -0.695312 12.789062 -0.207031 12.21875 0.09375 C 11.65625 0.40625 11.039062 0.5625 10.375 0.5625 C 9.375 0.5625 8.351562 0.25 7.3125 -0.375 C 6.28125 -1 5.40625 -1.832031 4.6875 -2.875 C 4.164062 -1.957031 3.664062 -1.28125 3.1875 -0.84375 C 2.71875 -0.414062 2.226562 -0.140625 1.71875 -0.015625 C 1.207031 0.0976562 0.632812 0.15625 0 0.15625 Z M 5.8125 -5.15625 C 6.5 -4.019531 7.257812 -3.1875 8.09375 -2.65625 C 8.9375 -2.125 9.6875 -1.859375 10.34375 -1.859375 C 11.050781 -1.859375 11.566406 -2.109375 11.890625 -2.609375 C 12.222656 -3.109375 12.207031 -3.804688 11.84375 -4.703125 C 11.601562 -5.304688 11.351562 -5.894531 11.09375 -6.46875 C 10.832031 -7.050781 10.53125 -7.523438 10.1875 -7.890625 C 9.851562 -8.265625 9.457031 -8.453125 9 -8.453125 C 8.5625 -8.441406 8.082031 -8.203125 7.5625 -7.734375 C 7.039062 -7.273438 6.457031 -6.414062 5.8125 -5.15625 Z M 5.8125 -5.15625 "/></g></g></g><g fill="#fefefe" fill-opacity="1"><g transform="translate(261.373019, 282.397424)"><g><path d="M 0 0.15625 L 0.265625 -2.3125 C 1.410156 -2.3125 2.210938 -2.421875 2.671875 -2.640625 C 3.128906 -2.859375 3.390625 -3.242188 3.453125 -3.796875 C 3.523438 -4.347656 3.546875 -5.132812 3.515625 -6.15625 L 2.9375 -21.421875 L 5.375 -21.421875 L 5.96875 -6.421875 C 6.03125 -5.003906 5.9375 -3.800781 5.6875 -2.8125 C 5.4375 -1.832031 4.875 -1.09375 4 -0.59375 C 3.132812 -0.09375 1.800781 0.15625 0 0.15625 Z M 0 0.15625 "/></g></g></g><g fill="#fefefe" fill-opacity="1"><g transform="translate(269.169992, 282.397424)"><g><path d="M 8.734375 0.15625 C 7.109375 0.15625 5.875 -0.0234375 5.03125 -0.390625 C 4.195312 -0.753906 3.617188 -1.3125 3.296875 -2.0625 C 2.972656 -2.820312 2.796875 -3.804688 2.765625 -5.015625 L 2.15625 -21.421875 L 4.625 -21.421875 L 5.21875 -5.96875 C 5.257812 -4.988281 5.351562 -4.234375 5.5 -3.703125 C 5.65625 -3.171875 5.992188 -2.804688 6.515625 -2.609375 C 7.046875 -2.410156 7.882812 -2.3125 9.03125 -2.3125 C 9.445312 -2.3125 9.75 -2.195312 9.9375 -1.96875 C 10.132812 -1.738281 10.234375 -1.460938 10.234375 -1.140625 C 10.234375 -0.816406 10.09375 -0.519531 9.8125 -0.25 C 9.53125 0.0195312 9.171875 0.15625 8.734375 0.15625 Z M 8.734375 0.15625 "/></g></g></g><g fill="#fefefe" fill-opacity="1"><g transform="translate(277.896604, 282.397424)"><g><path d="M 0 0.15625 L 0.296875 -2.3125 C 1.554688 -2.3125 2.53125 -2.320312 3.21875 -2.34375 C 3.914062 -2.363281 4.421875 -2.382812 4.734375 -2.40625 C 5.054688 -2.4375 5.28125 -2.453125 5.40625 -2.453125 C 5.039062 -2.660156 4.617188 -2.976562 4.140625 -3.40625 C 3.660156 -3.832031 3.238281 -4.378906 2.875 -5.046875 C 2.519531 -5.722656 2.34375 -6.519531 2.34375 -7.4375 C 2.34375 -8.5625 2.609375 -9.554688 3.140625 -10.421875 C 3.671875 -11.296875 4.398438 -11.972656 5.328125 -12.453125 C 6.253906 -12.929688 7.316406 -13.171875 8.515625 -13.171875 C 9.472656 -13.171875 10.460938 -13.007812 11.484375 -12.6875 L 10.984375 -10.375 C 10.140625 -10.59375 9.316406 -10.703125 8.515625 -10.703125 C 7.421875 -10.703125 6.523438 -10.40625 5.828125 -9.8125 C 5.140625 -9.226562 4.796875 -8.4375 4.796875 -7.4375 C 4.796875 -6.78125 4.960938 -6.195312 5.296875 -5.6875 C 5.640625 -5.175781 6.066406 -4.742188 6.578125 -4.390625 C 7.085938 -4.046875 7.617188 -3.78125 8.171875 -3.59375 C 8.722656 -3.414062 9.21875 -3.335938 9.65625 -3.359375 C 9.976562 -3.460938 10.273438 -3.554688 10.546875 -3.640625 C 10.816406 -3.734375 11.15625 -3.859375 11.5625 -4.015625 C 11.976562 -4.179688 12.570312 -4.441406 13.34375 -4.796875 L 14.1875 -2.609375 C 12.851562 -2.066406 11.488281 -1.585938 10.09375 -1.171875 C 8.707031 -0.753906 7.195312 -0.425781 5.5625 -0.1875 C 3.9375 0.0390625 2.082031 0.15625 0 0.15625 Z M 0 0.15625 "/></g></g></g></svg>